<svg xmlns="http://www.w3.org/2000/svg" xmlns:xlink="http://www.w3.org/1999/xlink" zoomAndPan="magnify" preserveAspectRatio="xMidYMid meet" version="1.0" viewBox="37.5 111.76 398.7 126.75"><defs><g/><clipPath id="cf153c18c7"><path d="M 37.5 111.757812 L 220.5 111.757812 L 220.5 238.507812 L 37.5 238.507812 Z M 37.5 111.757812 " clip-rule="nonzero"/></clipPath></defs><g clip-path="url(#cf153c18c7)"><path fill="#ff9202" d="M 432.636719 231.113281 C 434.605469 231.113281 436.199219 232.707031 436.199219 234.671875 C 436.199219 236.640625 434.605469 238.234375 432.636719 238.234375 L 67.027344 238.234375 C 63.507812 238.234375 60.304688 236.792969 57.992188 234.476562 C 55.675781 232.160156 54.234375 228.960938 54.234375 225.441406 L 54.234375 180.460938 L 47.890625 180.460938 C 45.414062 180.460938 43.375 179.8125 41.78125 178.734375 C 40.019531 177.542969 38.851562 175.859375 38.261719 173.945312 L 38.257812 173.945312 C 37.714844 172.167969 37.699219 170.210938 38.1875 168.308594 C 38.769531 166.042969 40.074219 163.832031 42.0625 162.121094 L 96.574219 115.128906 C 99.183594 112.882812 102.566406 111.757812 105.914062 111.757812 C 109.261719 111.757812 112.644531 112.882812 115.25 115.128906 L 151.886719 146.816406 C 153.367188 148.097656 153.527344 150.339844 152.246094 151.820312 C 150.964844 153.304688 148.722656 153.46875 147.242188 152.183594 L 110.605469 120.5 C 109.351562 119.421875 107.652344 118.878906 105.914062 118.878906 C 104.175781 118.878906 102.46875 119.421875 101.21875 120.5 L 46.707031 167.488281 C 45.847656 168.230469 45.292969 169.148438 45.058594 170.0625 C 44.894531 170.707031 44.886719 171.332031 45.046875 171.859375 L 45.042969 171.859375 L 45.046875 171.871094 C 45.164062 172.253906 45.402344 172.59375 45.757812 172.835938 C 46.222656 173.152344 46.925781 173.339844 47.890625 173.339844 L 57.796875 173.339844 C 59.761719 173.339844 61.355469 174.933594 61.355469 176.902344 L 61.355469 225.441406 C 61.355469 226.996094 61.996094 228.414062 63.023438 229.445312 C 64.054688 230.472656 65.472656 231.113281 67.027344 231.113281 Z M 432.636719 231.113281 " fill-opacity="1" fill-rule="nonzero"/></g><g fill="#002f6d" fill-opacity="1"><g transform="translate(78.990799, 213.389743)"><g><path d="M 21.359375 -41.34375 C 24.316406 -41.34375 26.84375 -40.800781 28.9375 -39.71875 C 31.039062 -38.632812 32.628906 -37.113281 33.703125 -35.15625 C 34.785156 -33.207031 35.328125 -30.941406 35.328125 -28.359375 C 35.328125 -25.785156 34.785156 -23.523438 33.703125 -21.578125 C 32.628906 -19.640625 31.039062 -18.125 28.9375 -17.03125 C 26.84375 -15.945312 24.316406 -15.40625 21.359375 -15.40625 L 13.546875 -15.40625 L 13.546875 0 L 5.375 0 L 5.375 -41.34375 Z M 20.28125 -21.890625 C 24.820312 -21.890625 27.09375 -24.046875 27.09375 -28.359375 C 27.09375 -32.703125 24.820312 -34.875 20.28125 -34.875 L 13.546875 -34.875 L 13.546875 -21.890625 Z M 20.28125 -21.890625 "/></g></g></g><g fill="#002f6d" fill-opacity="1"><g transform="translate(114.056452, 213.389743)"><g><path d="M 30.828125 -13.828125 L 10.78125 -13.828125 C 11 -11.109375 11.769531 -9.128906 13.09375 -7.890625 C 14.414062 -6.660156 16.21875 -6.046875 18.5 -6.046875 C 20.289062 -6.046875 21.738281 -6.378906 22.84375 -7.046875 C 23.957031 -7.722656 24.851562 -8.738281 25.53125 -10.09375 L 26.125 -10.09375 L 31.34375 -6.765625 C 30.320312 -4.578125 28.78125 -2.800781 26.71875 -1.4375 C 24.664062 -0.0820312 21.925781 0.59375 18.5 0.59375 C 15.269531 0.59375 12.484375 -0.015625 10.140625 -1.234375 C 7.796875 -2.460938 5.984375 -4.285156 4.703125 -6.703125 C 3.429688 -9.128906 2.796875 -12.085938 2.796875 -15.578125 C 2.796875 -19.128906 3.460938 -22.117188 4.796875 -24.546875 C 6.140625 -26.984375 7.953125 -28.800781 10.234375 -30 C 12.515625 -31.195312 15.082031 -31.796875 17.9375 -31.796875 C 22.34375 -31.796875 25.71875 -30.625 28.0625 -28.28125 C 30.414062 -25.945312 31.59375 -22.515625 31.59375 -17.984375 C 31.59375 -16.347656 31.535156 -15.078125 31.421875 -14.171875 Z M 24.09375 -18.890625 C 24.019531 -21.265625 23.46875 -22.992188 22.4375 -24.078125 C 21.414062 -25.160156 19.914062 -25.703125 17.9375 -25.703125 C 13.96875 -25.703125 11.632812 -23.429688 10.9375 -18.890625 Z M 24.09375 -18.890625 "/></g></g></g><g fill="#002f6d" fill-opacity="1"><g transform="translate(145.247095, 213.389743)"><g><path d="M 18.1875 0.59375 C 15.164062 0.59375 12.492188 -0.03125 10.171875 -1.28125 C 7.859375 -2.539062 6.050781 -4.382812 4.75 -6.8125 C 3.445312 -9.25 2.796875 -12.171875 2.796875 -15.578125 C 2.796875 -19.015625 3.445312 -21.945312 4.75 -24.375 C 6.050781 -26.8125 7.851562 -28.65625 10.15625 -29.90625 C 12.457031 -31.164062 15.085938 -31.796875 18.046875 -31.796875 C 24.628906 -31.796875 28.84375 -29.410156 30.6875 -24.640625 L 25.3125 -20.78125 L 24.71875 -20.78125 C 24.070312 -22.257812 23.234375 -23.351562 22.203125 -24.0625 C 21.179688 -24.78125 19.796875 -25.140625 18.046875 -25.140625 C 15.785156 -25.140625 14.019531 -24.359375 12.75 -22.796875 C 11.488281 -21.234375 10.859375 -18.828125 10.859375 -15.578125 C 10.859375 -12.378906 11.5 -9.988281 12.78125 -8.40625 C 14.0625 -6.832031 15.863281 -6.046875 18.1875 -6.046875 C 19.882812 -6.046875 21.320312 -6.503906 22.5 -7.421875 C 23.675781 -8.335938 24.519531 -9.65625 25.03125 -11.375 L 25.625 -11.421875 L 31.1875 -8.375 C 30.394531 -5.726562 28.929688 -3.570312 26.796875 -1.90625 C 24.660156 -0.238281 21.789062 0.59375 18.1875 0.59375 Z M 20.3125 -34.3125 L 14.984375 -34.3125 L 14.984375 -34.90625 L 19.0625 -43.71875 L 27.828125 -43.71875 L 27.828125 -43.125 Z M 20.3125 -34.3125 "/></g></g></g><g fill="#002f6d" fill-opacity="1"><g transform="translate(174.684085, 213.389743)"><g><path d="M 8.40625 -34.921875 C 6.988281 -34.921875 5.835938 -35.347656 4.953125 -36.203125 C 4.066406 -37.066406 3.625 -38.175781 3.625 -39.53125 C 3.625 -40.875 4.066406 -41.972656 4.953125 -42.828125 C 5.835938 -43.691406 6.988281 -44.125 8.40625 -44.125 C 9.34375 -44.125 10.175781 -43.925781 10.90625 -43.53125 C 11.644531 -43.132812 12.21875 -42.59375 12.625 -41.90625 C 13.03125 -41.21875 13.234375 -40.425781 13.234375 -39.53125 C 13.234375 -38.644531 13.03125 -37.851562 12.625 -37.15625 C 12.21875 -36.457031 11.644531 -35.910156 10.90625 -35.515625 C 10.175781 -35.117188 9.34375 -34.921875 8.40625 -34.921875 Z M 4.5 0 L 4.5 -31.1875 L 12.328125 -31.1875 L 12.328125 0 Z M 4.5 0 "/></g></g></g><g fill="#002f6d" fill-opacity="1"><g transform="translate(188.762409, 213.389743)"><g><path d="M 4.5 0 L 4.5 -31.1875 L 12.015625 -31.1875 L 12.015625 -26.609375 L 12.609375 -26.46875 C 14.554688 -30.019531 17.707031 -31.796875 22.0625 -31.796875 C 25.664062 -31.796875 28.3125 -30.8125 30 -28.84375 C 31.6875 -26.882812 32.53125 -24.03125 32.53125 -20.28125 L 32.53125 0 L 24.6875 0 L 24.6875 -19.3125 C 24.6875 -21.382812 24.269531 -22.878906 23.4375 -23.796875 C 22.613281 -24.710938 21.285156 -25.171875 19.453125 -25.171875 C 17.210938 -25.171875 15.460938 -24.441406 14.203125 -22.984375 C 12.953125 -21.535156 12.328125 -19.257812 12.328125 -16.15625 L 12.328125 0 Z M 4.5 0 "/></g></g></g><g fill="#002f6d" fill-opacity="1"><g transform="translate(222.583527, 213.389743)"><g><path d="M 30.828125 -13.828125 L 10.78125 -13.828125 C 11 -11.109375 11.769531 -9.128906 13.09375 -7.890625 C 14.414062 -6.660156 16.21875 -6.046875 18.5 -6.046875 C 20.289062 -6.046875 21.738281 -6.378906 22.84375 -7.046875 C 23.957031 -7.722656 24.851562 -8.738281 25.53125 -10.09375 L 26.125 -10.09375 L 31.34375 -6.765625 C 30.320312 -4.578125 28.78125 -2.800781 26.71875 -1.4375 C 24.664062 -0.0820312 21.925781 0.59375 18.5 0.59375 C 15.269531 0.59375 12.484375 -0.015625 10.140625 -1.234375 C 7.796875 -2.460938 5.984375 -4.285156 4.703125 -6.703125 C 3.429688 -9.128906 2.796875 -12.085938 2.796875 -15.578125 C 2.796875 -19.128906 3.460938 -22.117188 4.796875 -24.546875 C 6.140625 -26.984375 7.953125 -28.800781 10.234375 -30 C 12.515625 -31.195312 15.082031 -31.796875 17.9375 -31.796875 C 22.34375 -31.796875 25.71875 -30.625 28.0625 -28.28125 C 30.414062 -25.945312 31.59375 -22.515625 31.59375 -17.984375 C 31.59375 -16.347656 31.535156 -15.078125 31.421875 -14.171875 Z M 24.09375 -18.890625 C 24.019531 -21.265625 23.46875 -22.992188 22.4375 -24.078125 C 21.414062 -25.160156 19.914062 -25.703125 17.9375 -25.703125 C 13.96875 -25.703125 11.632812 -23.429688 10.9375 -18.890625 Z M 24.09375 -18.890625 "/></g></g></g><g fill="#002f6d" fill-opacity="1"><g transform="translate(232.183715, 237.63328)"><g><path d="M 6.921875 -2.203125 L 3.265625 -2.203125 L 2.46875 0 L 0.25 0 L 4 -10.234375 L 6.1875 -10.234375 L 9.9375 0 L 7.703125 0 Z M 3.921875 -3.953125 L 6.25 -3.953125 L 5.078125 -7.25 Z M 3.921875 -3.953125 "/></g></g></g><g fill="#002f6d" fill-opacity="1"><g transform="translate(245.23626, 237.63328)"><g><path d="M 2.921875 -3.78125 L 2.921875 0 L 0.859375 0 L 0.859375 -10.234375 L 4.1875 -10.234375 C 5.382812 -10.234375 6.289062 -9.976562 6.90625 -9.46875 C 7.53125 -8.96875 7.84375 -8.195312 7.84375 -7.15625 C 7.84375 -5.957031 7.53125 -5.09375 6.90625 -4.5625 C 6.289062 -4.039062 5.390625 -3.78125 4.203125 -3.78125 Z M 2.921875 -8.5 L 2.921875 -5.53125 L 4.203125 -5.53125 C 4.722656 -5.53125 5.113281 -5.640625 5.375 -5.859375 C 5.644531 -6.078125 5.78125 -6.507812 5.78125 -7.15625 C 5.78125 -7.425781 5.742188 -7.644531 5.671875 -7.8125 C 5.609375 -7.988281 5.507812 -8.125 5.375 -8.21875 C 5.238281 -8.320312 5.070312 -8.394531 4.875 -8.4375 C 4.6875 -8.476562 4.460938 -8.5 4.203125 -8.5 Z M 2.921875 -8.5 "/></g></g></g><g fill="#002f6d" fill-opacity="1"><g transform="translate(256.65021, 237.63328)"><g><path d="M 6.921875 -2.203125 L 3.265625 -2.203125 L 2.46875 0 L 0.25 0 L 4 -10.234375 L 6.1875 -10.234375 L 9.9375 0 L 7.703125 0 Z M 3.921875 -3.953125 L 6.25 -3.953125 L 5.078125 -7.25 Z M 3.921875 -3.953125 "/></g></g></g><g fill="#002f6d" fill-opacity="1"><g transform="translate(269.702754, 237.63328)"><g><path d="M 7.84375 -7.328125 C 7.84375 -6.492188 7.660156 -5.832031 7.296875 -5.34375 C 6.941406 -4.851562 6.421875 -4.515625 5.734375 -4.328125 L 8.265625 0 L 5.90625 0 L 3.484375 -4.171875 L 2.921875 -4.171875 L 2.921875 0 L 0.859375 0 L 0.859375 -10.234375 L 4.34375 -10.234375 C 5.488281 -10.234375 6.359375 -9.976562 6.953125 -9.46875 C 7.546875 -8.957031 7.84375 -8.242188 7.84375 -7.328125 Z M 2.921875 -8.5 L 2.921875 -5.90625 L 4.34375 -5.90625 C 4.832031 -5.90625 5.191406 -6 5.421875 -6.1875 C 5.660156 -6.382812 5.78125 -6.742188 5.78125 -7.265625 C 5.78125 -7.640625 5.660156 -7.9375 5.421875 -8.15625 C 5.191406 -8.382812 4.832031 -8.5 4.34375 -8.5 Z M 2.921875 -8.5 "/></g></g></g><g fill="#002f6d" fill-opacity="1"><g transform="translate(281.102069, 237.63328)"><g><path d="M 5.328125 -8.5 L 5.328125 0 L 3.265625 0 L 3.265625 -8.5 L 0.53125 -8.5 L 0.53125 -10.234375 L 8.0625 -10.234375 L 8.0625 -8.5 Z M 5.328125 -8.5 "/></g></g></g><g fill="#002f6d" fill-opacity="1"><g transform="translate(292.574528, 237.63328)"><g><path d="M 3.390625 -10.234375 L 5.953125 -3.46875 L 8.515625 -10.234375 L 10.65625 -10.234375 L 11.203125 0 L 9.140625 0 L 8.859375 -5.390625 L 6.796875 0 L 5.125 0 L 3.0625 -5.390625 L 2.78125 0 L 0.71875 0 L 1.25 -10.234375 Z M 3.390625 -10.234375 "/></g></g></g><g fill="#002f6d" fill-opacity="1"><g transform="translate(307.368065, 237.63328)"><g><path d="M 6.921875 -2.203125 L 3.265625 -2.203125 L 2.46875 0 L 0.25 0 L 4 -10.234375 L 6.1875 -10.234375 L 9.9375 0 L 7.703125 0 Z M 3.921875 -3.953125 L 6.25 -3.953125 L 5.078125 -7.25 Z M 3.921875 -3.953125 "/></g></g></g><g fill="#002f6d" fill-opacity="1"><g transform="translate(320.420611, 237.63328)"><g><path d="M 2.734375 -10.234375 L 6.84375 -4.03125 L 6.84375 -10.234375 L 8.90625 -10.234375 L 8.90625 0 L 7.03125 0 L 2.921875 -6.1875 L 2.921875 0 L 0.859375 0 L 0.859375 -10.234375 Z M 2.734375 -10.234375 "/></g></g></g><g fill="#002f6d" fill-opacity="1"><g transform="translate(333.063496, 237.63328)"><g><path d="M 4.875 -8.5 L 3.8125 -8.5 L 3.8125 -1.734375 L 4.875 -1.734375 L 4.875 0 L 0.703125 0 L 0.703125 -1.734375 L 1.75 -1.734375 L 1.75 -8.5 L 0.703125 -8.5 L 0.703125 -10.234375 L 4.875 -10.234375 Z M 4.875 -8.5 "/></g></g></g></svg>